<svg height="512pt" viewBox="-36 0 512 512" width="512pt" xmlns="http://www.w3.org/2000/svg"><path d="m267.199219 326-24.597657-14.199219c-1-.601562-1.800781-1.402343-2.601562-2.199219l-13.800781 24 30.402343 17.597657 13.796876-24c-1-.398438-2.199219-.800781-3.199219-1.199219zm0 0" fill="#fcd770"/><path d="m226.199219 333.398438-5.199219 36.402343c-.398438 2.199219 1.199219 4.398438 3.398438 4.597657 1.203124.203124 2.203124-.199219 3-.796876l29-22.601562zm0 0" fill="#ffae2c"/><path d="m379.601562 74.601562 24.597657 14.199219c4 2.398438 5.402343 7.398438 3 11.398438l-128.597657 222.601562c-2.402343 4-7.402343 5.398438-11.402343 3l-24.597657-14.199219c-4-2.402343-5.402343-7.402343-3-11.402343l128.597657-222.597657c2.199219-4 7.402343-5.402343 11.402343-3zm0 0" fill="#6d6c6b"/><path d="m405.199219 58.601562c-8.398438-4.800781-19.199219-2-24 6.398438l-4.800781 8.398438c1.203124.203124 2.203124.402343 3.203124 1l24.597657 14.203124c1 .597657 1.800781 1.398438 2.601562 2.199219l4.800781-8.402343c4.796876-8.199219 2-19-6.402343-23.796876zm0 0" fill="#e9e9ea"/><path d="m267.199219 326-24.597657-14.199219zm0 0" fill="#caecfc"/><path d="m278.601562 322.800781c-1.601562 2.800781-4.800781 4.597657-8.203124 4.199219l-13.796876 24-29 22.601562c-1.800781 1.398438-4.402343 1-5.800781-.800781-.601562-.800781-1-2-.800781-3l5.199219-36.402343 13.800781-24c-2-2.597657-2.199219-6.199219-.601562-9.199219l93.203124-161.398438v-93c0-4.402343-3.601562-8-8-8h-312c-4.402343 0-8 3.597657-8 8v428.800781c0 18 14.597657 32.398438 32.398438 32.398438s32.800781-14.601562 32.800781-32.398438v-61.203124c0-4.597657 3.597657-8.199219 8.199219-8.199219h254.800781v-175.800781zm0 0" fill="#caecfc"/><path d="m64.601562 192.800781h20.199219c5.199219 0 9.398438 4.199219 9.398438 9.398438v20.199219c0 5.203124-4.199219 9.402343-9.398438 9.402343h-20.199219c-5.203124 0-9.402343-4.199219-9.402343-9.402343v-20.199219c0-5.199219 4.199219-9.398438 9.402343-9.398438zm0 0" fill="#6dcc6d"/><path d="m64.601562 119h20.199219c5.199219 0 9.398438 4.199219 9.398438 9.398438v20.203124c0 5.199219-4.199219 9.398438-9.398438 9.398438h-20.199219c-5.203124 0-9.402343-4.199219-9.402343-9.398438v-20.203124c0-5.199219 4.199219-9.398438 9.402343-9.398438zm0 0" fill="#6dcc6d"/><path d="m64.601562 267.199219h20.199219c5.199219 0 9.398438 4.199219 9.398438 9.402343v20.199219c0 5.199219-4.199219 9.398438-9.398438 9.398438h-20.199219c-5.203124 0-9.402343-4.199219-9.402343-9.398438v-20.199219c0-5.203124 4.199219-9.402343 9.402343-9.402343zm0 0" fill="#6dcc6d"/><path d="m64.601562 341.601562h20.199219c5.199219 0 9.398438 4.199219 9.398438 9.398438v20.199219c0 5.199219-4.199219 9.402343-9.398438 9.402343h-20.199219c-5.203124 0-9.402343-4.203124-9.402343-9.402343v-20.199219c0-5.199219 4.199219-9.398438 9.402343-9.398438zm0 0" fill="#6dcc6d"/><path d="m357 405h-279c-4.601562 0-8.199219 3.601562-8.199219 8.199219v61.199219c0 18-14.601562 32.402343-32.402343 32.402343h295.402343c18 0 32.398438-14.601562 32.398438-32.402343v-61.199219c0-4.398438-3.800781-8.199219-8.199219-8.199219zm0 0" fill="#acdef9"/><g fill="#231f20"><path d="m332.800781 512h-295.402343c-2.796876 0-5-2.199219-5-5s2.203124-5 5-5c15.203124 0 27.402343-12.199219 27.402343-27.398438v-61.203124c0-7.199219 6-13.199219 13.199219-13.199219h279c7.199219 0 13.199219 6 13.199219 13.199219v61.203124c0 20.597657-16.800781 37.398438-37.398438 37.398438zm-270-10h270c15.199219 0 27.398438-12.199219 27.398438-27.398438v-61.203124c0-1.796876-1.398438-3.199219-3.199219-3.199219h-279c-1.800781 0-3.199219 1.402343-3.199219 3.199219v61.203124c0 10.398438-4.402343 20.398438-12 27.398438zm0 0"/><path d="m300.398438 74.800781h-19.597657c-2.800781 0-5-2.199219-5-5s2.199219-5 5-5h19.597657c2.800781 0 5 2.199219 5 5s-2.199219 5-5 5zm0 0"/><path d="m268.800781 254.601562h-145.800781c-2.800781 0-5-2.203124-5-5 0-2.800781 2.199219-5 5-5h145.800781c2.800781 0 5 2.199219 5 5 0 2.796876-2.402343 5-5 5zm0 0"/><path d="m282.398438 229.800781h-159.398438c-2.800781 0-5-2.199219-5-5s2.199219-5 5-5h159.398438c2.800781 0 5 2.199219 5 5s-2.199219 5-5 5zm0 0"/><path d="m282.398438 204.800781h-159.398438c-2.800781 0-5-2.199219-5-5s2.199219-5 5-5h159.398438c2.800781 0 5 2.199219 5 5s-2.199219 5-5 5zm0 0"/><path d="m224 354.398438h-101c-2.800781 0-5-2.199219-5-5 0-2.796876 2.199219-5 5-5h101c2.800781 0 5 2.203124 5 5 0 2.800781-2.199219 5-5 5zm0 0"/><path d="m231.398438 329.398438h-108.398438c-2.800781 0-5-2.199219-5-5 0-2.796876 2.199219-5 5-5h108.398438c2.800781 0 5 2.203124 5 5 0 2.800781-2.199219 5-5 5zm0 0"/><path d="m239.601562 304.601562h-116.601562c-2.800781 0-5-2.203124-5-5 0-2.800781 2.199219-5 5-5h116.601562c2.796876 0 5 2.199219 5 5 0 2.796876-2.402343 5-5 5zm0 0"/><path d="m224 379.398438h-101c-2.800781 0-5-2.199219-5-5 0-2.796876 2.199219-5 5-5h101.199219c2.800781 0 5 2.203124 5 5 0 2.800781-2.398438 5-5.199219 5zm0 0"/><path d="m254.398438 279.601562h-131.398438c-2.800781 0-5-2.203124-5-5 0-2.800781 2.199219-5 5-5h131.398438c2.800781 0 5 2.199219 5 5 0 2.796876-2.199219 5-5 5zm0 0"/><path d="m256.601562 356c-.800781 0-1.800781-.199219-2.402343-.601562l-30.398438-17.597657c-2.402343-1.402343-3.199219-4.402343-1.800781-6.800781l13.800781-24c1.398438-2.398438 4.398438-3.199219 6.800781-1.800781.597657.402343 1.199219.800781 1.597657 1.402343.199219.398438.601562.597657 1 1l24.601562 14.199219c.398438.199219.800781.398438 1.398438.398438 2.800781.402343 4.800781 2.800781 4.402343 5.601562 0 .597657-.203124 1.398438-.601562 2l-13.800781 24c-1 1.199219-2.800781 2.199219-4.597657 2.199219zm-23.601562-24.398438 21.800781 12.597657 8.398438-14.597657-21.800781-12.601562zm0 0"/><path d="m225.199219 379.601562c-5 0-9-4-9-9.203124 0-.398438 0-.796876 0-1.199219l5.199219-36.398438c.402343-2.800781 3-4.601562 5.601562-4.199219.601562 0 1.199219.398438 1.800781.597657l30.398438 17.601562c2.402343 1.398438 3.199219 4.398438 1.800781 6.800781-.398438.597657-.800781 1-1.199219 1.398438l-29 22.601562c-1.601562 1.199219-3.601562 1.796876-5.601562 2zm5-38.203124-3.800781 26.800781 21.402343-16.800781zm0 0"/><path d="m271.398438 332c-2.398438 0-4.597657-.601562-6.597657-1.800781l-24.601562-14.199219c-6.398438-3.800781-8.597657-11.800781-4.800781-18.199219l128.402343-222.800781c3.800781-6.398438 11.800781-8.601562 18.199219-4.800781l24.601562 14.199219c6.398438 3.800781 8.597657 11.800781 4.796876 18.203124l-128.597657 222.597657c-1.800781 3-4.601562 5.402343-8.199219 6.199219-.800781.402343-2 .601562-3.203124.601562zm104-253.601562c-1.199219 0-2.398438.601562-3 1.601562l-128.597657 222.800781c-1 1.597657-.402343 3.597657 1.199219 4.597657l24.601562 14.203124c1.597657 1 3.597657.398438 4.597657-1.203124l128.601562-222.597657c1-1.601562.398438-3.601562-1.199219-4.601562l-24.601562-14.199219c-.398438-.398438-1-.601562-1.601562-.601562zm0 0"/><path d="m406.800781 96c-1.601562 0-3-.800781-4-2-.199219-.398438-.601562-.601562-1-1l-24.601562-14.199219c-.398438-.199219-.800781-.402343-1.398438-.402343-2.800781-.398438-4.800781-2.796876-4.402343-5.597657 0-.601562.203124-1.402343.601562-2l4.800781-8.402343c6.199219-10.796876 20-14.398438 30.800781-8.199219 10.796876 6.199219 14.398438 20 8.199219 30.800781l-4.800781 8.398438c-.800781 1.402343-2.398438 2.402343-4 2.402343 0 .199219-.199219.199219-.199219.199219zm-23.402343-25 21.800781 12.601562 2-3.601562c3.402343-6 1.402343-13.800781-4.597657-17.199219-6-3.402343-13.800781-1.402343-17.203124 4.597657zm0 0"/><path d="m369.398438 207.199219c-.796876 0-1.796876-.199219-2.398438-.597657l-4-2.402343c-2.398438-1.398438-3.199219-4.398438-1.800781-6.800781 1.402343-2.199219 4.199219-3 6.402343-2l43.398438-75.199219c5.199219-9 2.199219-20.597657-6.800781-25.800781l-30-17.398438c-2.398438-1.398438-3.199219-4.398438-1.800781-6.800781 1.402343-2.398438 4.402343-3.199219 6.800781-1.800781l30 17.402343c13.800781 8 18.601562 25.597657 10.601562 39.398438l-46 79.601562c-.800781 1.597657-2.601562 2.398438-4.402343 2.398438zm0 0"/><path d="m408.800781 139.199219c-.800781 0-1.800781-.199219-2.402343-.597657l-15.796876-9.203124c-2.402343-1.398438-3.203124-4.398438-1.800781-6.796876l18.199219-31.601562c1.398438-2.398438 4.398438-3.199219 6.800781-1.800781.398438.199219.597657.402343 1 .601562 9.800781 9.199219 12 23.800781 5.199219 35.398438l-6.601562 11.601562c-1.199219 1.597657-2.796876 2.398438-4.597657 2.398438zm-9.199219-16 7.199219 4.199219 4.199219-7.199219c3.199219-5.398438 3.398438-12.199219.601562-17.800781zm0 0"/><path d="m267.199219 331c-.800781 0-1.597657-.199219-2.398438-.601562h-.199219l-24.601562-14.199219c-2.398438-1.398438-3.199219-4.398438-1.800781-6.800781 1.402343-2.199219 4.199219-3 6.601562-2 .199219 0 .199219.203124.398438.203124l24.601562 14.199219h.199219c2.398438 1.398438 3.199219 4.398438 1.800781 6.800781-1.199219 1.398438-2.800781 2.398438-4.601562 2.398438zm0 0"/><path d="m37.398438 512c-20.597657 0-37.398438-16.800781-37.398438-37.398438v-428.800781c0-7.199219 5.800781-13 13-13h312c7.199219 0 13 5.800781 13 13v93c0 .800781-.199219 1.800781-.601562 2.398438l-93.597657 161.601562c-.601562 1.199219-.601562 2.597657.199219 3.597657 1.199219 1.601562 1.199219 3.800781.398438 5.402343l-13.398438 23.199219-4.601562 33.199219 26.402343-20.597657 13.398438-23.203124c1-1.796876 3-2.597657 4.800781-2.398438 1.398438.199219 2.601562-.601562 3.199219-1.601562l54-93.597657c1.402343-2.402343 4.402343-3.199219 6.800781-1.800781 1.601562.800781 2.398438 2.601562 2.398438 4.398438v175.800781c0 2.800781-2.199219 5-5 5h-254.398438c-1.800781 0-3.199219 1.402343-3.199219 3.199219v61.203124c0 20.597657-16.800781 37.398438-37.402343 37.398438zm-24.597657-469c-1.601562 0-2.800781 1.398438-3 3v428.800781c.199219 15.199219 12.597657 27.398438 27.597657 27.199219s27-12.199219 27.203124-27.199219v-61.199219c0-7.203124 6-13.203124 13.199219-13.203124h250v-152.398438l-44.800781 77.398438c-2 3.601562-5.601562 6-9.601562 6.601562l-12.398438 21.601562c-.398438.597657-.800781 1-1.199219 1.398438l-29 22.601562c-4 3-9.601562 2.398438-12.800781-1.601562-1.601562-2-2.199219-4.398438-1.800781-6.800781l5.199219-36.398438c0-.601562.402343-1.199219.601562-1.800781l12.398438-21.601562c-1.398438-3.796876-1.199219-8 .800781-11.597657l92.601562-160.199219v-91.800781c0-1.601562-1.402343-2.800781-3-3h-312zm0 0"/><path d="m241.199219 315.601562c-2.800781 0-5-2.203124-5-5 0-2.800781 2.199219-5 5-5 1.199219 0 2.199219.398438 3.199219 1 .203124.199219.601562.597657.800781.796876 1.800781 2.203124 1.402343 5.402343-.800781 7-1 .800781-2 1.203124-3.199219 1.203124zm0 0"/><path d="m268.199219 331.398438c-.597657 0-1.199219-.199219-1.800781-.398438 0 0-.199219 0-.199219-.199219-2.597657-1-3.800781-4-2.597657-6.601562 1.199219-2.597657 4-3.800781 6.597657-2.597657 0 0 .199219 0 .199219.199219 2.601562 1.199219 3.601562 4 2.601562 6.597657-1 1.800781-2.800781 3-4.800781 3zm0 0"/><path d="m268.800781 331.601562c-.402343 0-.800781 0-1.199219-.203124-.203124 0-.203124 0-.402343-.199219-2.597657-.800781-4-3.597657-3.199219-6.398438.800781-2.601562 3.398438-4 6-3.199219h.199219c2.601562.796876 4.199219 3.597657 3.402343 6.199219-.601562 2.398438-2.402343 3.800781-4.800781 3.800781zm0 0"/><path d="m241.800781 316.199219c-1 0-2-.398438-2.800781-1-.199219 0-.199219-.199219-.398438-.199219-1.203124-1-2-2.398438-2-3.800781 0-2.800781 2.199219-5 5-5 1.199219 0 2.199219.402343 3 1h.199219c2.199219 1.601562 2.597657 4.800781.800781 7-.800781 1.402343-2.203124 2-3.800781 2zm0 0"/><path d="m84.601562 236.601562h-20c-8 0-14.402343-6.402343-14.402343-14.402343v-20.199219c0-8 6.402343-14.398438 14.402343-14.398438h20.199219c8 0 14.398438 6.398438 14.398438 14.398438v20.199219c-.199219 8-6.597657 14.402343-14.597657 14.402343zm-20-38.800781c-2.402343 0-4.402343 2-4.402343 4.398438v20.199219c0 2.402343 2 4.402343 4.402343 4.402343h20.199219c2.398438 0 4.398438-2 4.398438-4.402343v-20.398438c0-2.398438-2-4.398438-4.398438-4.398438zm0 0"/><path d="m80.199219 224.601562c-1.398438 0-2.800781-.601562-3.597657-1.601562l-10.800781-11.800781c-1.800781-2-1.601562-5.199219.398438-7s5-1.597657 7 .402343l7.199219 7.796876 20.601562-20.597657c2-2 5.199219-1.800781 7 .199219s1.800781 5 0 7l-24.199219 24.199219c-1 .800781-2.199219 1.402343-3.601562 1.402343zm0 0"/><path d="m282.398438 180.800781h-159.398438c-2.800781 0-5-2.199219-5-5s2.199219-5 5-5h159.398438c2.800781 0 5 2.199219 5 5s-2.199219 5-5 5zm0 0"/><path d="m282.398438 156h-159.398438c-2.800781 0-5-2.199219-5-5s2.199219-5 5-5h159.398438c2.800781 0 5 2.199219 5 5s-2.199219 5-5 5zm0 0"/><path d="m282.398438 131h-159.398438c-2.800781 0-5-2.199219-5-5s2.199219-5 5-5h159.398438c2.800781 0 5 2.199219 5 5s-2.199219 5-5 5zm0 0"/><path d="m84.601562 162.800781h-20c-8 0-14.402343-6.402343-14.402343-14.402343v-20.199219c0-8 6.402343-14.398438 14.402343-14.398438h20.199219c8 0 14.398438 6.398438 14.398438 14.398438v20.199219c-.199219 8-6.597657 14.402343-14.597657 14.402343zm-20-38.800781c-2.402343 0-4.402343 2-4.402343 4.398438v20.203124c0 2.398438 2 4.398438 4.402343 4.398438h20.199219c2.398438 0 4.398438-2 4.398438-4.398438v-20.402343c0-2.398438-2-4.398438-4.398438-4.398438zm0 0"/><path d="m80.199219 150.800781c-1.398438 0-2.800781-.601562-3.597657-1.601562l-10.800781-11.800781c-1.800781-2-1.601562-5.199219.398438-7 2-1.796876 5-1.597657 7 .402343l7.199219 7.800781 20.601562-20.601562c2-2 5.199219-1.800781 7 .199219s1.800781 5 0 7l-24.199219 24.199219c-1 .800781-2.199219 1.402343-3.601562 1.402343zm0 0"/><path d="m84.601562 311h-20c-8 0-14.402343-6.398438-14.402343-14.398438v-20.203124c0-8 6.402343-14.398438 14.402343-14.398438h20.199219c8 0 14.398438 6.398438 14.398438 14.398438v20.203124c-.199219 8-6.597657 14.398438-14.597657 14.398438zm-20-38.800781c-2.402343 0-4.402343 2-4.402343 4.402343v20.199219c0 2.398438 2 4.398438 4.402343 4.398438h20.199219c2.398438 0 4.398438-2 4.398438-4.398438v-20.199219c0-2.402343-2-4.402343-4.398438-4.402343zm0 0"/><path d="m80.199219 299c-1.398438 0-2.800781-.601562-3.597657-1.601562l-10.800781-11.796876c-1.800781-2-1.601562-5.203124.398438-7 2-1.800781 5-1.601562 7 .398438l7.199219 7.800781 20.601562-20.601562c2-2 5.199219-1.800781 7 .199219s1.800781 5 0 7l-24.199219 24.203124c-1 1-2.199219 1.398438-3.601562 1.398438zm0 0"/><path d="m84.601562 385.398438h-20c-8 0-14.402343-6.398438-14.402343-14.398438v-20.199219c0-8 6.402343-14.402343 14.402343-14.402343h20.199219c8 0 14.398438 6.402343 14.398438 14.402343v20.199219c-.199219 8-6.597657 14.398438-14.597657 14.398438zm-20-38.796876c-2.402343 0-4.402343 2-4.402343 4.398438v20.199219c0 2.402343 2 4.402343 4.402343 4.402343h20.199219c2.398438 0 4.398438-2 4.398438-4.402343v-20.199219c0-2.398438-2-4.398438-4.398438-4.398438zm0 0"/><path d="m80.199219 373.601562c-1.398438 0-2.800781-.601562-3.597657-1.601562l-10.800781-11.800781c-1.800781-2-1.601562-5.199219.398438-7s5-1.597657 7 .402343l7.199219 7.796876 20.601562-20.597657c2-2 5.199219-1.800781 7 .199219s1.800781 5 0 7l-24.199219 24c-1 1-2.199219 1.601562-3.601562 1.601562zm0 0"/></g><path d="m382.398438 18c-9-1.800781-16-8.800781-17.597657-17.601562 0-.199219-.199219-.398438-.402343-.398438-.199219 0-.199219.199219-.398438.398438-1.800781 9-8.800781 16-17.601562 17.601562-.199219 0-.398438.199219-.398438.398438 0 .203124.199219.203124.398438.402343 9 1.800781 16 8.800781 17.601562 17.597657 0 .203124.199219.402343.398438.402343.203124 0 .203124-.199219.402343-.402343 1.800781-9 8.800781-16 17.597657-17.597657.203124 0 .402343-.199219.402343-.402343 0-.199219-.199219-.398438-.402343-.398438zm0 0" fill="#fcd770"/><path d="m400.601562 303.800781h-17.402343c-2.800781 0-5-2.199219-5-5s2.199219-5 5-5h17.402343c2.796876 0 5 2.199219 5 5s-2.203124 5-5 5zm0 0" fill="#60bae2"/><path d="m391.800781 312.601562c-2.800781 0-5-2.203124-5-5v-17.601562c0-2.800781 2.199219-5 5-5s5 2.199219 5 5v17.398438c0 3-2.199219 5.203124-5 5.203124zm0 0" fill="#60bae2"/><path d="m424.601562 357.601562c1.398438 0 2.597657.597657 3.597657 1.398438.199219.199219.402343.398438.601562.800781.199219.199219.398438.597657.398438.800781.199219.398438.199219.597657.199219 1 0 .398438.203124.597657.203124 1 0 .398438 0 .597657-.203124 1 0 .398438-.199219.597657-.199219 1-.199219.398438-.199219.597657-.398438.796876-.199219.203124-.402343.601562-.601562.800781-1.398438 1.402343-3.597657 1.800781-5.398438 1-.402343-.199219-.601562-.199219-.800781-.398438s-.601562-.402343-.800781-.601562-.398438-.398438-.597657-.800781c-.203124-.199219-.402343-.597657-.402343-.796876-.199219-.402343-.199219-.601562-.199219-1 0-.402343 0-.601562-.199219-1 0-.402343 0-.601562.199219-1 0-.402343.199219-.601562.199219-1 .199219-.402343.199219-.601562.402343-.800781.199219-.199219.398438-.601562.597657-.800781s.402343-.398438.800781-.601562c.199219-.199219.601562-.398438.800781-.398438.398438-.199219.597657-.199219 1-.199219.199219-.199219.597657-.199219.800781-.199219zm0 0" fill="#f75c64"/><path d="m434.601562 38c1.398438 0 2.597657.601562 3.597657 1.398438.199219.203124.402343.402343.601562.800781.199219.199219.398438.601562.398438.800781.199219.398438.199219.601562.199219 1s.203124.601562.203124 1 0 .601562-.203124 1c0 .398438-.199219.601562-.199219 1-.199219.398438-.199219.601562-.398438.800781s-.402343.597657-.601562.800781c-1.398438 1.398438-3.597657 1.796876-5.398438 1-.402343-.203124-.601562-.203124-.800781-.402343s-.601562-.398438-.800781-.597657c-.199219-.203124-.398438-.402343-.597657-.800781-.203124-.199219-.402343-.601562-.402343-.800781-.199219-.398438-.199219-.601562-.199219-1s0-.601562-.199219-1c0-.398438 0-.601562.199219-1 0-.398438.199219-.601562.199219-1 .199219-.398438.199219-.601562.402343-.800781.199219-.199219.398438-.597657.597657-.800781.199219-.199219.402343-.398438.800781-.597657.199219-.199219.601562-.402343.800781-.402343.398438-.199219.597657-.199219 1-.199219.199219-.199219.597657-.199219.800781-.199219zm0 0" fill="#60bae2"/></svg>